<svg xmlns="http://www.w3.org/2000/svg" width="900" height="520" viewBox="0 0 900 520">
<rect width="100%" height="100%" fill="white" />
<text x="450.0" y="28" text-anchor="middle" font-size="20" font-family="Arial, sans-serif">Episode Length</text>
<line x1="72" y1="56" x2="72" y2="456" stroke="#333" />
<line x1="72" y1="456" x2="876" y2="456" stroke="#333" />
<line x1="72.00" y1="456" x2="72.00" y2="462" stroke="#333" /><text x="72.00" y="480" text-anchor="middle" font-size="12" font-family="Arial, sans-serif">1</text>
<line x1="273.00" y1="456" x2="273.00" y2="462" stroke="#333" /><text x="273.00" y="480" text-anchor="middle" font-size="12" font-family="Arial, sans-serif">6</text>
<line x1="474.00" y1="456" x2="474.00" y2="462" stroke="#333" /><text x="474.00" y="480" text-anchor="middle" font-size="12" font-family="Arial, sans-serif">10</text>
<line x1="675.00" y1="456" x2="675.00" y2="462" stroke="#333" /><text x="675.00" y="480" text-anchor="middle" font-size="12" font-family="Arial, sans-serif">15</text>
<line x1="876.00" y1="456" x2="876.00" y2="462" stroke="#333" /><text x="876.00" y="480" text-anchor="middle" font-size="12" font-family="Arial, sans-serif">20</text>
<line x1="66" y1="456.00" x2="72" y2="456.00" stroke="#333" /><text x="62" y="460.00" text-anchor="end" font-size="12" font-family="Arial, sans-serif">17.00</text>
<line x1="66" y1="356.00" x2="72" y2="356.00" stroke="#333" /><text x="62" y="360.00" text-anchor="end" font-size="12" font-family="Arial, sans-serif">51.75</text>
<line x1="66" y1="256.00" x2="72" y2="256.00" stroke="#333" /><text x="62" y="260.00" text-anchor="end" font-size="12" font-family="Arial, sans-serif">86.50</text>
<line x1="66" y1="156.00" x2="72" y2="156.00" stroke="#333" /><text x="62" y="160.00" text-anchor="end" font-size="12" font-family="Arial, sans-serif">121.25</text>
<line x1="66" y1="56.00" x2="72" y2="56.00" stroke="#333" /><text x="62" y="60.00" text-anchor="end" font-size="12" font-family="Arial, sans-serif">156.00</text>
<polyline fill="none" stroke="#2563eb" stroke-width="2" points="72.00,372.55 114.32,56.00 156.63,424.35 198.95,424.35 241.26,314.99 283.58,456.00 325.89,398.45 368.21,456.00 410.53,392.69 452.84,314.99 495.16,343.77 537.47,395.57 579.79,312.12 622.11,456.00 664.42,225.78 706.74,139.45 749.05,453.12 791.37,366.79 833.68,312.12 876.00,427.22" />
<text x="450.0" y="502" text-anchor="middle" font-size="14" font-family="Arial, sans-serif">Episode</text>
<text x="18" y="260.0" text-anchor="middle" font-size="14" font-family="Arial, sans-serif" transform="rotate(-90 18 260.0)">Steps</text>
</svg>
